<?xml version="1.0" encoding="UTF-8"?>
<svg version="1.1" xmlns="http://www.w3.org/2000/svg" width="500" height="500">
<path d="M0 0 C7.56205801 5.04991671 11.93052633 12.01444981 15.375 20.3125 C17.22192085 31.20933301 16.74849152 42.27813778 10.1880579 51.56494617 C4.28951016 58.68463579 -2.02368144 65.29705845 -8.57836914 71.80541992 C-9.7131175 72.93960258 -10.84742257 74.0742289 -11.98132324 75.20925903 C-15.02788689 78.25639098 -18.08052873 81.29736422 -21.13439107 84.33717895 C-24.33706526 87.52725758 -27.53398744 90.72309055 -30.73155212 93.91828918 C-36.77274483 99.95329285 -42.81901246 105.98318491 -48.8671698 112.01120788 C-55.75877827 118.88037668 -62.64463431 125.75529976 -69.53003895 132.63068616 C-83.68035008 146.76015372 -97.83778562 160.88246395 -112 175 C-110.8364801 175.00586624 -109.67296021 175.01173248 -108.47418213 175.01777649 C-97.47011053 175.07517018 -86.46623339 175.14801801 -75.46236038 175.23571491 C-69.80613907 175.2803039 -64.14998788 175.31958504 -58.49365234 175.34643555 C-53.02756053 175.37258326 -47.56174026 175.41306595 -42.09581757 175.46318626 C-40.01803738 175.47977773 -37.94021031 175.49133979 -35.86237335 175.49761391 C-20.14286276 175.54985017 -6.19057599 175.59798048 5.96875 186.81640625 C13.46364828 194.67652203 16.35280969 204.39371143 16.2109375 215.0625 C15.4690919 225.39338688 10.68417038 233.75379277 3.25 240.8125 C-4.9508868 247.58373029 -14.45468844 249.15308768 -24.82267761 249.14044189 C-25.59183433 249.14341302 -26.36099105 249.14638414 -27.15345556 249.1494453 C-29.72104859 249.1580906 -32.28859476 249.159637 -34.85620117 249.16113281 C-36.70128478 249.16576395 -38.54636743 249.17078901 -40.39144897 249.17617798 C-45.39787059 249.18927581 -50.4042788 249.19574188 -55.41071486 249.20018864 C-58.5415914 249.20312371 -61.6724643 249.20722935 -64.803339 249.21169281 C-74.60800731 249.22536111 -84.41266729 249.23503092 -94.21734446 249.2388947 C-105.51883828 249.24337335 -116.82021103 249.26091512 -128.12166804 249.2898953 C-136.86838787 249.31154248 -145.61507372 249.32160061 -154.36182004 249.32293582 C-159.58070461 249.32398171 -164.79947526 249.32984341 -170.01833153 249.34775543 C-174.93084898 249.36428856 -179.84316753 249.36636623 -184.75570297 249.35761642 C-186.55231956 249.35684884 -188.34894707 249.36115175 -190.14553642 249.37107468 C-204.75426468 249.44698884 -216.83495755 248.55918743 -228 238 C-236.10788638 227.72321762 -238.20495716 217.87656636 -237 205 C-233.94170856 188.70279595 -217.70728661 176.40395207 -206.53759766 165.23120117 C-204.77050073 163.456472 -203.00380316 161.68134512 -201.23747253 159.90585327 C-196.46343707 155.10998127 -191.68296155 150.32059114 -186.90053606 145.53309035 C-183.90898711 142.53826837 -180.9190706 139.54182028 -177.92948532 136.54503822 C-169.63372754 128.22974436 -161.33641686 119.9160092 -153.03234291 111.60901928 C-152.50278855 111.07927734 -151.97323418 110.54953541 -151.42763271 110.00374069 C-150.35438783 108.93012958 -149.28114168 107.85651974 -148.20789428 106.78291114 C-147.40889286 105.98363551 -147.40889286 105.98363551 -146.59375 105.16821289 C-145.79376048 104.36795255 -145.79376048 104.36795255 -144.97760956 103.55152533 C-136.3270535 94.89742391 -127.68831606 86.23162801 -119.05468233 77.56064733 C-110.16719566 68.63502665 -101.27032898 59.71884755 -92.36390531 50.81212217 C-87.37266604 45.82029987 -82.38540658 40.82464636 -77.4084053 35.8186245 C-72.72982694 31.11288808 -68.03839954 26.42024309 -63.33820534 21.73608017 C-61.61945271 20.01914016 -59.9049337 18.29794952 -58.19508553 16.57214165 C-41.79576501 0.02916412 -23.30271377 -13.7033869 0 0 Z " fill="#000000" transform="translate(363,132)"/>
<path d="M0 0 C8.70933072 5.35630943 13.47954062 12.50258292 17 22 C19.18743268 31.84344708 18.32347201 41.22443982 13.4375 50.0625 C7.75135739 58.93674684 -0.11147785 65.11083936 -10.4140625 67.578125 C-21.36668529 69.36495772 -31.14487578 67.61688893 -40.3125 61.25 C-48.18527639 54.81010111 -53.35975423 46.36979212 -54.3828125 36.19140625 C-54.87646736 25.0595558 -53.09864504 16.25553303 -45.75 7.625 C-33.93437627 -4.57802123 -15.24441628 -8.96573872 0 0 Z " fill="#000000" transform="translate(180,131)"/>
<path d="M0 0 C3.77358182 2.490564 4.73457851 4.04448262 5.9375 8.375 C6.01843717 13.06935596 5.47727128 17.07312442 2.5625 20.875 C-1.05479135 23.47944977 -4.71303985 23.29565242 -9 23 C-12.5386994 21.34860695 -13.81070153 20.28394771 -16 17 C-16.74238395 11.51417335 -16.91501922 6.64072412 -14.1875 1.75 C-9.47163351 -0.83910317 -5.2563688 -0.97077081 0 0 Z M-6 5 C-6.99 5.66 -7.98 6.32 -9 7 C-9.43827201 8.90457929 -9.43827201 8.90457929 -9.3125 11 C-9.30863281 11.70125 -9.30476562 12.4025 -9.30078125 13.125 C-9.14912946 15.2416577 -9.14912946 15.2416577 -7 17 C-4.21762345 16.59471099 -4.21762345 16.59471099 -2 15 C-1.92851801 13.64756083 -1.91600546 12.29165633 -1.9375 10.9375 C-1.958125 9.638125 -1.97875 8.33875 -2 7 C-3.32 6.34 -4.64 5.68 -6 5 Z " fill="#272B2C" transform="translate(199,439)"/>
<path d="M0 0 C2.31 0 4.62 0 7 0 C7 2.64 7 5.28 7 8 C8.65 8 10.3 8 12 8 C12 5.36 12 2.72 12 0 C14.31 0 16.62 0 19 0 C19 7.26 19 14.52 19 22 C16.69 22 14.38 22 12 22 C12 19.36 12 16.72 12 14 C10.35 14 8.7 14 7 14 C7 16.64 7 19.28 7 22 C4.69 22 2.38 22 0 22 C0 14.74 0 7.48 0 0 Z " fill="#272B2C" transform="translate(319,439)"/>
<path d="M0 0 C12.32467532 -0.40630798 12.32467532 -0.40630798 17 3 C19.32766479 5.99271187 19.41185662 9.23180904 19.328125 12.96484375 C18.79173147 16.29176075 17.11151942 18.45375599 15 21 C10.73840618 23.13079691 4.59236298 22.04502317 0 22 C0 14.74 0 7.48 0 0 Z M6 6 C6 9.63 6 13.26 6 17 C10.20180184 16.4260261 10.20180184 16.4260261 12 13 C11.68493373 9.85778033 11.68493373 9.85778033 11 7 C9.35 6.67 7.7 6.34 6 6 Z " fill="#272B2C" transform="translate(225,439)"/>
<path d="M0 0 C2.97 0 5.94 0 9 0 C16 17.02030457 16 17.02030457 16 22 C13.69 22 11.38 22 9 22 C8.67 20.68 8.34 19.36 8 18 C6.02 18 4.04 18 2 18 C1.67 19.32 1.34 20.64 1 22 C-1.31 22 -3.62 22 -6 22 C-4.7205886 14.39086902 -2.57243067 7.26774103 0 0 Z M4 9 C3.67 10.32 3.34 11.64 3 13 C4.32 12.67 5.64 12.34 7 12 C6.67 11.01 6.34 10.02 6 9 C5.34 9 4.68 9 4 9 Z " fill="#272B2C" transform="translate(277,439)"/>
<path d="M0 0 C5.94 0 11.88 0 18 0 C18 5.58330869 17.27627724 6.56357796 14 10.8125 C13.2575 11.78832031 12.515 12.76414062 11.75 13.76953125 C11.1725 14.50558594 10.595 15.24164063 10 16 C12.64 16.33 15.28 16.66 18 17 C18 18.65 18 20.3 18 22 C12.06 22 6.12 22 0 22 C0.92458531 16.45248816 1.42168006 14.85083046 4.5625 10.625 C5.52349609 9.31402344 5.52349609 9.31402344 6.50390625 7.9765625 C6.99761719 7.32429688 7.49132812 6.67203125 8 6 C5.36 6 2.72 6 0 6 C0 4.02 0 2.04 0 0 Z " fill="#272B2C" transform="translate(160,439)"/>
<path d="M0 0 C1.31677734 0.00966797 1.31677734 0.00966797 2.66015625 0.01953125 C4.9375 0.1875 4.9375 0.1875 6.9375 1.1875 C6.5625 3.625 6.5625 3.625 5.9375 6.1875 C3.9375 7.1875 3.9375 7.1875 -0.0625 7.1875 C0.906875 7.826875 1.87625 8.46625 2.875 9.125 C5.9375 11.1875 5.9375 11.1875 6.9375 12.1875 C7.40867528 18.54836633 7.40867528 18.54836633 5.69921875 20.8671875 C3.55474634 22.47435308 2.15474577 22.7047061 -0.5 22.9375 C-1.26183594 23.01484375 -2.02367187 23.0921875 -2.80859375 23.171875 C-5.07916179 23.18761551 -6.8963125 22.83883656 -9.0625 22.1875 C-9.0625 19.8775 -9.0625 17.5675 -9.0625 15.1875 C-4.6075 16.1775 -4.6075 16.1775 -0.0625 17.1875 C-0.0625 16.5275 -0.0625 15.8675 -0.0625 15.1875 C-0.990625 14.94 -1.91875 14.6925 -2.875 14.4375 C-6.31778099 13.08738981 -7.52928117 12.52450568 -9.0625 9.1875 C-8.9375 5.5625 -8.9375 5.5625 -8.0625 2.1875 C-4.79122414 0.00664943 -3.78873277 -0.06137859 0 0 Z " fill="#272B2C" transform="translate(306.0625,438.8125)"/>
<path d="M0 0 C1.50433594 0.01353516 1.50433594 0.01353516 3.0390625 0.02734375 C3.80992187 0.03894531 4.58078125 0.05054688 5.375 0.0625 C6.30923645 3.07281744 6.41949911 3.92900268 5.375 7.0625 C4.446875 6.835625 3.51875 6.60875 2.5625 6.375 C-0.50647942 5.77674487 -0.50647942 5.77674487 -2.5 7.0625 C-4.17790731 10.04544634 -3.8146396 12.71220039 -3.625 16.0625 C-0.655 16.0625 2.315 16.0625 5.375 16.0625 C5.375 18.0425 5.375 20.0225 5.375 22.0625 C-2.62529542 23.50917651 -2.62529542 23.50917651 -6.5625 21.75 C-9.92321442 19.00032456 -10.9605198 17.67110449 -11.5 13.375 C-11.96136511 7.9793741 -10.82896297 5.36496456 -7.625 1.0625 C-4.98041621 -0.25979189 -2.94738699 -0.03427194 0 0 Z " fill="#272B2C" transform="translate(260.625,438.9375)"/>
<path d="M0 0 C2.31 0 4.62 0 7 0 C7 7.26 7 14.52 7 22 C4.69 22 2.38 22 0 22 C0 14.74 0 7.48 0 0 Z " fill="#272B2C" transform="translate(211,439)"/>
<path d="M0 0 C1.32 0 2.64 0 4 0 C4 1.32 4 2.64 4 4 C4.66 4 5.32 4 6 4 C6 2.68 6 1.36 6 0 C7.32 0 8.64 0 10 0 C10 3.63 10 7.26 10 11 C8.68 11 7.36 11 6 11 C6 9.68 6 8.36 6 7 C5.34 7 4.68 7 4 7 C4 8.32 4 9.64 4 11 C2.68 11 1.36 11 0 11 C0 7.37 0 3.74 0 0 Z " fill="#272B2C" transform="translate(350,485)"/>
<path d="M0 0 C5.75 -0.125 5.75 -0.125 8 1 C7.95875 1.9075 7.9175 2.815 7.875 3.75 C7.78622655 7.2599657 7.78622655 7.2599657 10 11 C6.7 11 3.4 11 0 11 C0 7.37 0 3.74 0 0 Z " fill="#272B2C" transform="translate(160,485)"/>
<path d="M0 0 C1.65 0.33 3.3 0.66 5 1 C5.99 4.3 6.98 7.6 8 11 C4.04 11 0.08 11 -4 11 C-1.125 1.125 -1.125 1.125 0 0 Z " fill="#272B2C" transform="translate(313,485)"/>
<path d="M0 0 C1.65 0 3.3 0 5 0 C5.99 3.63 6.98 7.26 8 11 C4.37 11 0.74 11 -3 11 C-1.125 2.25 -1.125 2.25 0 0 Z " fill="#272B2C" transform="translate(218,485)"/>
<path d="M0 0 C2.475 0.495 2.475 0.495 5 1 C5.33 1.66 5.66 2.32 6 3 C6.33 2.01 6.66 1.02 7 0 C8.32 0 9.64 0 11 0 C10.69078116 1.45903258 10.37751201 2.91720722 10.0625 4.375 C9.88847656 5.18710937 9.71445313 5.99921875 9.53515625 6.8359375 C9 9 9 9 8 11 C6.35 11 4.7 11 3 11 C2.01 7.37 1.02 3.74 0 0 Z " fill="#272B2C" transform="translate(194,485)"/>
<path d="M0 0 C0.33 0.66 0.66 1.32 1 2 C0.67 2.99 0.34 3.98 0 5 C0.39397335 7.63804589 0.39397335 7.63804589 1 10 C-2 12 -2 12 -4.6875 11.625 C-5.450625 11.41875 -6.21375 11.2125 -7 11 C-6.7215625 10.0409375 -6.7215625 10.0409375 -6.4375 9.0625 C-6.293125 8.381875 -6.14875 7.70125 -6 7 C-6.33 6.67 -6.66 6.34 -7 6 C-7.04063832 4.33382885 -7.042721 2.66611905 -7 1 C-4.53721199 -0.231394 -2.7204945 -0.07159196 0 0 Z " fill="#272B2C" transform="translate(338,485)"/>
<path d="M0 0 C5.625 -0.25 5.625 -0.25 9 2 C8.67 3.65 8.34 5.3 8 7 C6.68 7.33 5.36 7.66 4 8 C4 8.99 4 9.98 4 11 C2.68 11 1.36 11 0 11 C0 7.37 0 3.74 0 0 Z " fill="#272B2C" transform="translate(140,485)"/>
<path d="M0 0 C0.78375 0.04125 1.5675 0.0825 2.375 0.125 C2.705 1.445 3.035 2.765 3.375 4.125 C2.055 4.125 0.735 4.125 -0.625 4.125 C-0.955 5.445 -1.285 6.765 -1.625 8.125 C0.025 8.125 1.675 8.125 3.375 8.125 C3.375 9.115 3.375 10.105 3.375 11.125 C1.125 11.875 1.125 11.875 -1.625 12.125 C-4 10.5625 -4 10.5625 -5.625 8.125 C-5.44648232 3.66205808 -5.06369949 0.24112855 0 0 Z " fill="#272B2C" transform="translate(295.625,484.875)"/>
<path d="M0 0 C0.78375 0.04125 1.5675 0.0825 2.375 0.125 C2.705 1.445 3.035 2.765 3.375 4.125 C2.055 4.125 0.735 4.125 -0.625 4.125 C-0.955 5.445 -1.285 6.765 -1.625 8.125 C0.025 8.125 1.675 8.125 3.375 8.125 C3.375 9.115 3.375 10.105 3.375 11.125 C1.125 11.875 1.125 11.875 -1.625 12.125 C-4 10.5625 -4 10.5625 -5.625 8.125 C-5.44648232 3.66205808 -5.06369949 0.24112855 0 0 Z " fill="#272B2C" transform="translate(241.625,484.875)"/>
<path d="M0 0 C0.886875 0.185625 1.77375 0.37125 2.6875 0.5625 C5.85178811 0.98042484 7.94839642 0.80777742 11 0 C10.566875 1.051875 10.566875 1.051875 10.125 2.125 C8.97866412 5.05452503 7.97374346 8.00921653 7 11 C6.01 11 5.02 11 4 11 C3.52014033 9.72942818 3.0411407 8.45853152 2.5625 7.1875 C2.16224609 6.12595703 2.16224609 6.12595703 1.75390625 5.04296875 C1.13774814 3.37327604 0.56280765 1.68842296 0 0 Z " fill="#272B2C" transform="translate(255,485)"/>
<path d="M0 0 C1.32 0 2.64 0 4 0 C4 3.63 4 7.26 4 11 C2.68 11 1.36 11 0 11 C0 7.37 0 3.74 0 0 Z " fill="#272B2C" transform="translate(180,485)"/>
</svg>
