<?xml version="1.0" encoding="UTF-8"?>
<svg version="1.1" xmlns="http://www.w3.org/2000/svg" width="500" height="500" viewBox="0 0 500 500">
<rect width="500" height="500" fill="#0a0a0a"/>
<path d="M0 0 C7.56205801 5.04991671 11.93052633 12.01444981 15.375 20.3125 C17.22192085 31.20933301 16.74849152 42.27813778 10.1880579 51.56494617 C4.28951016 58.68463579 -2.02368144 65.29705845 -8.57836914 71.80541992 C-9.7131175 72.93960258 -10.84742257 74.0742289 -11.98132324 75.20925903 C-15.02788689 78.25639098 -18.08052873 81.29736422 -21.13439107 84.33717895 C-24.33706526 87.52725758 -27.53398744 90.72309055 -30.73155212 93.91828918 C-36.77274483 99.95329285 -42.81901246 105.98318491 -48.8671698 112.01120788 C-55.75877827 118.88037668 -62.64463431 125.75529976 -69.53003895 132.63068616 C-83.68035008 146.76015372 -97.83778562 160.88246395 -112 175 C-110.8364801 175.00586624 -109.67296021 175.01173248 -108.47418213 175.01777649 C-97.47011053 175.07517018 -86.46623339 175.14801801 -75.46236038 175.23571491 C-69.80613907 175.2803039 -64.14998788 175.31958504 -58.49365234 175.34643555 C-53.02756053 175.37258326 -47.56174026 175.41306595 -42.09581757 175.46318626 C-40.01803738 175.47977773 -37.94021031 175.49133979 -35.86237335 175.49761391 C-20.14286276 175.54985017 -6.19057599 175.59798048 5.96875 186.81640625 C13.46364828 194.67652203 16.35280969 204.39371143 16.2109375 215.0625 C15.4690919 225.39338688 10.68417038 233.75379277 3.25 240.8125 C-4.9508868 247.58373029 -14.45468844 249.15308768 -24.82267761 249.14044189 C-25.59183433 249.14341302 -26.36099105 249.14638414 -27.15345556 249.1494453 C-29.72104859 249.1580906 -32.28859476 249.159637 -34.85620117 249.16113281 C-36.70128478 249.16576395 -38.54636743 249.17078901 -40.39144897 249.17617798 C-45.39787059 249.18927581 -50.4042788 249.19574188 -55.41071486 249.20018864 C-58.5415914 249.20312371 -61.6724643 249.20722935 -64.803339 249.21169281 C-74.60800731 249.22536111 -84.41266729 249.23503092 -94.21734446 249.2388947 C-105.51883828 249.24337335 -116.82021103 249.26091512 -128.12166804 249.2898953 C-136.86838787 249.31154248 -145.61507372 249.32160061 -154.36182004 249.32293582 C-159.58070461 249.32398171 -164.79947526 249.32984341 -170.01833153 249.34775543 C-174.93084898 249.36428856 -179.84316753 249.36636623 -184.75570297 249.35761642 C-186.55231956 249.35684884 -188.34894707 249.36115175 -190.14553642 249.37107468 C-204.75426468 249.44698884 -216.83495755 248.55918743 -228 238 C-236.10788638 227.72321762 -238.20495716 217.87656636 -237 205 C-233.94170856 188.70279595 -217.70728661 176.40395207 -206.53759766 165.23120117 C-204.77050073 163.456472 -203.00380316 161.68134512 -201.23747253 159.90585327 C-196.46343707 155.10998127 -191.68296155 150.32059114 -186.90053606 145.53309035 C-183.90898711 142.53826837 -180.9190706 139.54182028 -177.92948532 136.54503822 C-169.63372754 128.22974436 -161.33641686 119.9160092 -153.03234291 111.60901928 C-152.50278855 111.07927734 -151.97323418 110.54953541 -151.42763271 110.00374069 C-150.35438783 108.93012958 -149.28114168 107.85651974 -148.20789428 106.78291114 C-147.40889286 105.98363551 -147.40889286 105.98363551 -146.59375 105.16821289 C-145.79376048 104.36795255 -145.79376048 104.36795255 -144.97760956 103.55152533 C-136.3270535 94.89742391 -127.68831606 86.23162801 -119.05468233 77.56064733 C-110.16719566 68.63502665 -101.27032898 59.71884755 -92.36390531 50.81212217 C-87.37266604 45.82029987 -82.38540658 40.82464636 -77.4084053 35.8186245 C-72.72982694 31.11288808 -68.03839954 26.42024309 -63.33820534 21.73608017 C-61.61945271 20.01914016 -59.9049337 18.29794952 -58.19508553 16.57214165 C-41.79576501 0.02916412 -23.30271377 -13.7033869 0 0 Z " fill="#FFFFFF" transform="translate(363,132)"/>
<path d="M0 0 C8.70933072 5.35630943 13.47954062 12.50258292 17 22 C19.18743268 31.84344708 18.32347201 41.22443982 13.4375 50.0625 C7.75135739 58.93674684 -0.11147785 65.11083936 -10.4140625 67.578125 C-21.36668529 69.36495772 -31.14487578 67.61688893 -40.3125 61.25 C-48.18527639 54.81010111 -53.35975423 46.36979212 -54.3828125 36.19140625 C-54.87646736 25.0595558 -53.09864504 16.25553303 -45.75 7.625 C-33.93437627 -4.57802123 -15.24441628 -8.96573872 0 0 Z " fill="#FFFFFF" transform="translate(180,131)"/>
<path d="M0 0 C3.77358182 2.490564 4.73457851 4.04448262 5.9375 8.375 C6.01843717 13.06935596 5.47727128 17.07312442 2.5625 20.875 C-1.05479135 23.47944977 -4.71303985 23.29565242 -9 23 C-12.5386994 21.34860695 -13.81070153 20.28394771 -16 17 C-16.74238395 11.51417335 -16.91501922 6.64072412 -14.1875 1.75 C-9.47163351 -0.83910317 -5.2563688 -0.97077081 0 0 Z M-6 5 C-6.99 5.66 -7.98 6.32 -9 7 C-9.43827201 8.90457929 -9.43827201 8.90457929 -9.3125 11 C-9.30863281 11.70125 -9.30476562 12.4025 -9.30078125 13.125 C-9.14912946 15.2416577 -9.14912946 15.2416577 -7 17 C-4.21762345 16.59471099 -4.21762345 16.59471099 -2 15 C-1.92851801 13.64756083 -1.91600546 12.29165633 -1.9375 10.9375 C-1.958125 9.638125 -1.97875 8.33875 -2 7 C-3.32 6.34 -4.64 5.68 -6 5 Z " fill="#FFFFFF" transform="translate(199,439)"/>
</svg>

